<svg width="34" height="36" viewBox="0 0 34 36" fill="none" xmlns="http://www.w3.org/2000/svg">
<path d="M18.7344 6.65094L20.0459 5.33951C22.6212 2.7642 26.8138 2.70045 29.404 5.26093C30.3854 6.2333 31.0377 7.48868 31.269 8.85073C31.5004 10.2128 31.2992 11.6131 30.6938 12.855C30.4035 13.4482 30.3057 14.1173 30.4139 14.7689C30.5223 15.4204 30.8314 16.0218 31.2982 16.4891C32.1565 15.6289 32.8368 14.6079 33.3004 13.4846C33.7639 12.3613 34.0017 11.1577 34 9.94246C33.9981 8.72728 33.7572 7.52433 33.2904 6.40235C32.8236 5.28035 32.1403 4.26132 31.2797 3.40347C27.6578 -0.197951 21.7789 -0.126284 18.1672 3.48526L5.66699 15.9851L4.63936 14.9575C2.02038 12.3385 2.00368 8.05748 4.66888 5.48504C5.65541 4.53577 6.91227 3.91609 8.266 3.71154C9.61973 3.50699 11.0036 3.72766 12.2265 4.34308C12.7847 4.62912 13.419 4.73145 14.0389 4.63545C14.6587 4.53944 15.2323 4.25003 15.6779 3.80852L15.7097 3.77682C15.7197 3.76697 15.7275 3.75525 15.7329 3.74233C15.7383 3.72943 15.741 3.71559 15.741 3.70161C15.741 3.68763 15.7383 3.67378 15.7329 3.66088C15.7275 3.64798 15.7197 3.63626 15.7097 3.6264C13.9893 1.94915 11.6837 1.00704 9.28098 0.999419C6.87824 0.991804 4.56677 1.91928 2.8357 3.58559C-0.893211 7.18533 -0.879886 13.1713 2.78511 16.8363L15.2816 29.3328L13.9541 30.6603C11.3788 33.2356 7.18601 33.2993 4.59603 30.7389C3.61459 29.7665 2.96238 28.5111 2.731 27.1491C2.49964 25.787 2.70071 24.3867 3.30601 23.1448C3.59641 22.5515 3.69428 21.8824 3.58597 21.231C3.47764 20.5794 3.16853 19.9779 2.70181 19.5106C1.84353 20.371 1.16317 21.3919 0.699591 22.5151C0.236006 23.6385 -0.00171328 24.842 9.29501e-06 26.0574C0.00173188 27.2725 0.242862 28.4755 0.709631 29.5974C1.1764 30.7195 1.85966 31.7385 2.72036 32.5963C6.34202 36.1979 12.2211 36.1264 15.8328 32.5147L28.3492 19.9982L29.3807 21.0297C31.956 23.605 32.0198 27.7976 29.4593 30.3876C28.487 31.3692 27.2315 32.0213 25.8695 32.2528C24.5075 32.4842 23.1072 32.283 21.8652 31.6776C21.2718 31.3871 20.6024 31.2891 19.9506 31.3977C19.2989 31.5061 18.6972 31.8156 18.2299 32.2827C19.0903 33.141 20.1111 33.8214 21.2344 34.285C22.3578 34.7485 23.5613 34.9863 24.7766 34.9846C25.9918 34.9828 27.1948 34.7416 28.3167 34.2749C29.4387 33.8081 30.4578 33.1248 31.3156 32.2641C34.9172 28.6424 34.8455 22.7633 31.234 19.1518L18.7344 6.65094ZM17.1476 27.4659L7.53356 17.8518L16.8677 8.51784L26.4818 18.1319L17.1476 27.4659Z" fill="#605BFF"/>
</svg>
