<svg width="54" height="54" viewBox="0 0 54 54" fill="none" xmlns="http://www.w3.org/2000/svg">
<circle opacity="0.1" cx="27" cy="27" r="27" fill="#605BFF"/>
<path d="M26.617 18C31.3736 18 35.234 21.8604 35.234 26.617C35.234 31.3736 31.3736 35.234 26.617 35.234C21.8604 35.234 18 31.3736 18 26.617C18 21.8604 21.8604 18 26.617 18ZM26.617 33.3191C30.3195 33.3191 33.3191 30.3195 33.3191 26.617C33.3191 22.9136 30.3195 19.9149 26.617 19.9149C22.9136 19.9149 19.9149 22.9136 19.9149 26.617C19.9149 30.3195 22.9136 33.3191 26.617 33.3191ZM34.741 33.3871L37.4496 36.0948L36.0948 37.4496L33.3871 34.741L34.741 33.3871Z" fill="#605BFF"/>
</svg>
