<svg width="47" height="47" viewBox="0 0 47 47" fill="none" xmlns="http://www.w3.org/2000/svg">
<circle opacity="0.1" cx="23.5" cy="23.5" r="23.5" fill="#F98080"/>
<path d="M24 15.6667C28.6025 15.6667 32.3333 19.3976 32.3333 24.0001C32.3333 28.6026 28.6025 32.3334 24 32.3334C19.3975 32.3334 15.6667 28.6026 15.6667 24.0001H17.3333C17.3333 27.6817 20.3183 30.6667 24 30.6667C27.6817 30.6667 30.6667 27.6817 30.6667 24.0001C30.6667 20.3184 27.6817 17.3334 24 17.3334C21.9467 17.3334 20.11 18.2617 18.8875 19.7209L20.6667 21.5001H15.6667V16.5001L17.7058 18.5384C19.2333 16.7801 21.4867 15.6667 24 15.6667ZM24.8333 19.8334V23.6542L27.5358 26.3567L26.3567 27.5359L23.1667 24.3442V19.8334H24.8333Z" fill="#F98080"/>
</svg>
