<svg width="54" height="54" viewBox="0 0 54 54" fill="none" xmlns="http://www.w3.org/2000/svg">
<circle opacity="0.1" cx="27" cy="27" r="27" fill="#605BFF"/>
<path fill-rule="evenodd" clip-rule="evenodd" d="M18 22.7872C18 20.1433 20.1433 18 22.7872 18H32.3617C35.0056 18 37.1489 20.1433 37.1489 22.7872C37.1489 23.316 36.7203 23.7447 36.1915 23.7447C35.6627 23.7447 35.234 23.316 35.234 22.7872C35.234 21.2009 33.9481 19.9149 32.3617 19.9149H22.7872C21.2009 19.9149 19.9149 21.2009 19.9149 22.7872V28.5319C19.9149 30.1183 21.2009 31.4043 22.7872 31.4043H25.6596C26.1884 31.4043 26.617 31.8329 26.617 32.3617C26.617 32.8905 26.1884 33.3191 25.6596 33.3191H22.7872C20.1433 33.3191 18 31.1758 18 28.5319V22.7872ZM28.5319 27.5745C28.5319 25.9881 29.8179 24.7021 31.4043 24.7021H34.2766C35.8629 24.7021 37.1489 25.9881 37.1489 27.5745V34.2766C37.1489 35.8629 35.8629 37.1489 34.2766 37.1489H31.4043C29.8179 37.1489 28.5319 35.8629 28.5319 34.2766V27.5745ZM31.4043 26.617C30.8755 26.617 30.4468 27.0457 30.4468 27.5745V34.2766C30.4468 34.8054 30.8755 35.234 31.4043 35.234H34.2766C34.8054 35.234 35.234 34.8054 35.234 34.2766V27.5745C35.234 27.0457 34.8054 26.617 34.2766 26.617H31.4043ZM18 36.1915C18 35.6627 18.4287 35.234 18.9574 35.234H25.6596C26.1884 35.234 26.617 35.6627 26.617 36.1915C26.617 36.7203 26.1884 37.1489 25.6596 37.1489H18.9574C18.4287 37.1489 18 36.7203 18 36.1915Z" fill="#605BFF"/>
</svg>
