<svg width="47" height="47" viewBox="0 0 47 47" fill="none" xmlns="http://www.w3.org/2000/svg">
<circle opacity="0.1" cx="23.5" cy="23.5" r="23.5" fill="#31C48D"/>
<path d="M24 15.6666C28.6025 15.6666 32.3334 19.3975 32.3334 24C32.3334 28.6025 28.6025 32.3333 24 32.3333C19.3975 32.3333 15.6667 28.6025 15.6667 24H17.3334C17.3334 27.6816 20.3184 30.6666 24 30.6666C27.6817 30.6666 30.6667 27.6816 30.6667 24C30.6667 20.3183 27.6817 17.3333 24 17.3333C21.9467 17.3333 20.11 18.2616 18.8875 19.7208L20.6667 21.5H15.6667V16.5L17.7059 18.5383C19.2334 16.78 21.4867 15.6666 24 15.6666ZM24.8334 19.8333V23.6541L27.5359 26.3566L26.3567 27.5358L23.1667 24.3441V19.8333H24.8334Z" fill="#31C48D"/>
</svg>
