<svg width="54" height="54" viewBox="0 0 54 54" fill="none" xmlns="http://www.w3.org/2000/svg">
<circle opacity="0.1" cx="27" cy="27" r="27" fill="#605BFF"/>
<path fill-rule="evenodd" clip-rule="evenodd" d="M27.5745 19.9149C24.9306 19.9149 22.7872 22.0582 22.7872 24.7021C22.7872 27.4413 24.0992 30.1198 25.4944 32.1761C26.1837 33.1921 26.8743 34.0283 27.3919 34.6097C27.4556 34.6811 27.5165 34.7487 27.5745 34.8122C27.6324 34.7487 27.6934 34.6811 27.757 34.6097C28.2747 34.0283 28.9652 33.1921 29.6545 32.1761C31.0497 30.1198 32.3617 27.4413 32.3617 24.7021C32.3617 22.0582 30.2184 19.9149 27.5745 19.9149ZM27.5745 36.1915C26.9159 36.8864 26.9157 36.8862 26.9154 36.886L26.9133 36.884L26.9087 36.8796L26.8933 36.8648C26.8803 36.8523 26.862 36.8345 26.8388 36.8117C26.7924 36.7661 26.7262 36.7002 26.643 36.6151C26.4766 36.4449 26.242 36.1977 25.9618 35.8831C25.4023 35.2547 24.6567 34.352 23.9098 33.2513C22.4327 31.0742 20.8723 28.008 20.8723 24.7021C20.8723 21.0006 23.873 18 27.5745 18C31.276 18 34.2766 21.0006 34.2766 24.7021C34.2766 28.008 32.7162 31.0742 31.2391 33.2513C30.4923 34.352 29.7466 35.2547 29.1871 35.8831C28.907 36.1977 28.6723 36.4449 28.5059 36.6151C28.4227 36.7002 28.3565 36.7661 28.3101 36.8117C28.2869 36.8345 28.2686 36.8523 28.2557 36.8648L28.2403 36.8796L28.2356 36.884L28.2341 36.8855C28.2339 36.8857 28.2331 36.8864 27.5745 36.1915ZM27.5745 36.1915L28.2331 36.8864C27.8638 37.2364 27.2847 37.236 26.9154 36.886L27.5745 36.1915ZM27.5745 23.7447C27.0457 23.7447 26.617 24.1733 26.617 24.7021C26.617 25.2309 27.0457 25.6596 27.5745 25.6596C28.1033 25.6596 28.5319 25.2309 28.5319 24.7021C28.5319 24.1733 28.1033 23.7447 27.5745 23.7447ZM24.7021 24.7021C24.7021 23.1158 25.9881 21.8298 27.5745 21.8298C29.1608 21.8298 30.4468 23.1158 30.4468 24.7021C30.4468 26.2885 29.1608 27.5745 27.5745 27.5745C25.9881 27.5745 24.7021 26.2885 24.7021 24.7021Z" fill="#605BFF"/>
</svg>
