<svg width="54" height="55" viewBox="0 0 54 55" fill="none" xmlns="http://www.w3.org/2000/svg">
<circle opacity="0.1" cx="27" cy="27.5" r="27" fill="#605BFF"/>
<path fill-rule="evenodd" clip-rule="evenodd" d="M27.5744 20.4149C24.9305 20.4149 22.7872 22.5582 22.7872 25.2021C22.7872 26.3643 23.2001 27.4274 23.8882 28.2567C24.3279 28.7866 24.7021 29.5038 24.7021 30.34V31.9043C24.7021 32.433 25.1308 32.8617 25.6595 32.8617H29.4893C30.0181 32.8617 30.4468 32.433 30.4468 31.9043V30.34C30.4468 29.5038 30.821 28.7866 31.2607 28.2567C31.9488 27.4274 32.3617 26.3643 32.3617 25.2021C32.3617 22.5582 30.2184 20.4149 27.5744 20.4149ZM20.8723 25.2021C20.8723 21.5006 23.873 18.5 27.5744 18.5C31.2759 18.5 34.2766 21.5006 34.2766 25.2021C34.2766 26.8271 33.697 28.3193 32.7344 29.4795C32.4785 29.7879 32.3617 30.0869 32.3617 30.34V31.9043C32.3617 33.4906 31.0757 34.7766 29.4893 34.7766H25.6595C24.0732 34.7766 22.7872 33.4906 22.7872 31.9043V30.34C22.7872 30.0869 22.6704 29.7879 22.4145 29.4795C21.4518 28.3193 20.8723 26.8271 20.8723 25.2021ZM23.7447 36.6915C23.7447 36.1627 24.1733 35.734 24.7021 35.734H30.4468C30.9756 35.734 31.4042 36.1627 31.4042 36.6915C31.4042 37.2203 30.9756 37.6489 30.4468 37.6489H24.7021C24.1733 37.6489 23.7447 37.2203 23.7447 36.6915Z" fill="#605BFF"/>
</svg>
